<?xml version="1.0" encoding="utf-8"?>
<!-- Generator: Adobe Adobe Illustrator 24.2.0, SVG Export Plug-In . SVG Version: 6.00 Build 0)  -->
<svg version="1.1" id="Layer_3" xmlns="http://www.w3.org/2000/svg" xmlns:xlink="http://www.w3.org/1999/xlink" x="0px" y="0px"
	 width="610" height="610" viewBox="0 0 610 610" style="enable-background:new 0 0 1024 1024;" xml:space="preserve">
<style type="text/css">
	.st0{fill:#072AC8;}
	.st1{fill:#1E96FC;}
</style>
<g>
	<path class="st0" d="M212,502V312c0-46.94,38.06-85,85-85h285c77.32,0,140,62.68,140,140v80c0,77.32-62.68,140-140,140H297
		C250.06,587,212,548.94,212,502z"/>
	<path class="st1" d="M212,712V522c0-46.94,38.06-85,85-85h375c77.32,0,140,62.68,140,140v80c0,77.32-62.68,140-140,140H297
		C250.06,797,212,758.94,212,712z"/>
</g>
</svg>
